<svg width="104" height="48" viewBox="0 0 104 48" fill="none" xmlns="http://www.w3.org/2000/svg">
<rect width="104" height="48" fill="#818181"/>
<g clip-path="url(#clip0)">
<path d="M13.1 5.25C12.6056 4.66133 11.9784 4.19861 11.27 3.9C10.548 3.54416 9.75491 3.35614 8.95 3.35C8.48146 3.34962 8.01464 3.40671 7.56 3.52C7.11355 3.63063 6.68802 3.813 6.3 4.06C5.92286 4.30313 5.60505 4.62777 5.37 5.01C5.11875 5.43636 4.9939 5.92537 5.01 6.42C4.997 6.87431 5.10761 7.32363 5.33 7.72C5.54789 8.08761 5.84513 8.40193 6.2 8.64C6.6168 8.91607 7.0671 9.13786 7.54 9.3C8.06667 9.48666 8.64667 9.67667 9.28 9.87C9.91334 10.0633 10.6567 10.3267 11.51 10.66C12.2679 10.949 12.9815 11.3429 13.63 11.83C14.2977 12.3074 14.8566 12.9209 15.27 13.63C15.7078 14.4788 15.9212 15.4255 15.89 16.38C15.9176 17.467 15.6917 18.5455 15.23 19.53C14.8123 20.3952 14.2078 21.1568 13.46 21.76C12.6911 22.3672 11.8115 22.8189 10.87 23.09C9.85353 23.3877 8.79915 23.5359 7.74 23.53C6.27871 23.5276 4.83065 23.2529 3.47 22.72C2.14405 22.2295 0.966392 21.4065 0.0500031 20.33L2.9 17.67C3.4702 18.4456 4.22689 19.0647 5.1 19.47C5.93833 19.8918 6.86161 20.1175 7.8 20.13C8.27836 20.1292 8.75497 20.0721 9.22 19.96C9.69029 19.8487 10.1349 19.6484 10.53 19.37C10.914 19.1078 11.2378 18.7669 11.48 18.37C11.7338 17.9011 11.8581 17.3729 11.84 16.84C11.8599 16.3192 11.7165 15.8053 11.43 15.37C11.1321 14.9645 10.7543 14.6242 10.32 14.37C9.8029 14.0624 9.25276 13.8142 8.68 13.63L6.68 12.97C5.99994 12.7534 5.33227 12.4997 4.68 12.21C3.98999 11.9148 3.35448 11.5058 2.8 11C2.24915 10.4959 1.80388 9.8875 1.49 9.21C1.12608 8.37879 0.951862 7.47695 0.980003 6.57C0.952008 5.5444 1.19703 4.52978 1.69 3.63C2.15891 2.83411 2.79737 2.15126 3.56 1.63C4.35983 1.07942 5.24996 0.673271 6.19 0.429999C7.16792 0.164623 8.17672 0.0301167 9.19 0.0299988C10.3686 0.0373507 11.5378 0.240101 12.65 0.629999C13.7823 1.0081 14.8217 1.62154 15.7 2.43L13.1 5.25Z" fill="#005E8A"/>
<path d="M18.57 0.570007H22.57V22.96H18.57V0.570007Z" fill="#005E8A"/>
<path d="M25.59 0.570007H33.53C35.0148 0.573641 36.4932 0.765163 37.93 1.14001C39.3732 1.49973 40.7321 2.1384 41.93 3.02001C43.1428 3.93298 44.1284 5.11364 44.81 6.47001C45.5992 8.12226 45.9799 9.93993 45.92 11.77C45.966 13.5217 45.585 15.2584 44.81 16.83C44.1177 18.1877 43.1343 19.376 41.93 20.31C40.7338 21.2214 39.3769 21.8999 37.93 22.31C36.502 22.736 35.0202 22.9549 33.53 22.96H25.59V0.570007ZM32.9 19.48C33.9438 19.4801 34.984 19.3593 36 19.12C37.0025 18.8953 37.9528 18.4812 38.8 17.9C39.6453 17.284 40.331 16.4749 40.8 15.54C41.3649 14.3695 41.636 13.0789 41.59 11.78C41.6429 10.429 41.3721 9.08501 40.8 7.86001C40.3391 6.91709 39.652 6.10288 38.8 5.49001C37.9548 4.91574 37.0025 4.51781 36 4.32001C34.98 4.10947 33.9415 4.00226 32.9 4.00001H29.58V19.5H32.9V19.48Z" fill="#005E8A"/>
<path d="M48.49 0.570007H52.49V19.42H62.01V22.96H48.49V0.570007Z" fill="#005E8A"/>
<path d="M64.65 0.570007H79.48V4.05001H68.64V9.74001H78.92V13.09H68.64V19.42H80.05V22.96H64.65V0.570007Z" fill="#005E8A"/>
<path d="M89.99 13.25L81.57 0.570007H86.44L92.07 10L97.76 0.570007H102.38L93.97 13.25V22.96H89.97V13.25H89.99Z" fill="#005E8A"/>
</g>
<g clip-path="url(#clip1)">
<path d="M13.1 29.25C12.6056 28.6613 11.9784 28.1986 11.27 27.9C10.548 27.5442 9.75491 27.3561 8.95 27.35C8.48146 27.3496 8.01464 27.4067 7.56 27.52C7.11355 27.6306 6.68802 27.813 6.3 28.06C5.92286 28.3031 5.60505 28.6278 5.37 29.01C5.11875 29.4364 4.9939 29.9254 5.01 30.42C4.997 30.8743 5.10761 31.3236 5.33 31.72C5.54789 32.0876 5.84513 32.4019 6.2 32.64C6.6168 32.9161 7.0671 33.1379 7.54 33.3C8.06667 33.4867 8.64667 33.6767 9.28 33.87C9.91334 34.0633 10.6567 34.3267 11.51 34.66C12.2679 34.949 12.9815 35.3429 13.63 35.83C14.2977 36.3074 14.8566 36.9209 15.27 37.63C15.7078 38.4788 15.9212 39.4255 15.89 40.38C15.9176 41.467 15.6917 42.5455 15.23 43.53C14.8123 44.3952 14.2078 45.1568 13.46 45.76C12.6911 46.3672 11.8115 46.8189 10.87 47.09C9.85353 47.3877 8.79915 47.5359 7.74 47.53C6.27871 47.5276 4.83065 47.2529 3.47 46.72C2.14405 46.2295 0.966392 45.4065 0.0500031 44.33L2.9 41.67C3.4702 42.4456 4.22689 43.0647 5.1 43.47C5.93833 43.8918 6.86161 44.1175 7.8 44.13C8.27836 44.1292 8.75497 44.0721 9.22 43.96C9.69029 43.8487 10.1349 43.6484 10.53 43.37C10.914 43.1078 11.2378 42.7669 11.48 42.37C11.7338 41.9011 11.8581 41.3729 11.84 40.84C11.8599 40.3192 11.7165 39.8053 11.43 39.37C11.1321 38.9645 10.7543 38.6242 10.32 38.37C9.8029 38.0624 9.25276 37.8142 8.68 37.63L6.68 36.97C5.99994 36.7534 5.33227 36.4997 4.68 36.21C3.98999 35.9148 3.35448 35.5058 2.8 35C2.24915 34.4959 1.80388 33.8875 1.49 33.21C1.12608 32.3788 0.951862 31.477 0.980003 30.57C0.952008 29.5444 1.19703 28.5298 1.69 27.63C2.15891 26.8341 2.79737 26.1513 3.56 25.63C4.35983 25.0794 5.24996 24.6733 6.19 24.43C7.16792 24.1646 8.17672 24.0301 9.19 24.03C10.3686 24.0374 11.5378 24.2401 12.65 24.63C13.7823 25.0081 14.8217 25.6215 15.7 26.43L13.1 29.25Z" fill="white"/>
<path d="M18.57 24.57H22.57V46.96H18.57V24.57Z" fill="white"/>
<path d="M25.59 24.57H33.53C35.0148 24.5736 36.4932 24.7652 37.93 25.14C39.3732 25.4997 40.7321 26.1384 41.93 27.02C43.1428 27.933 44.1284 29.1136 44.81 30.47C45.5992 32.1223 45.9799 33.9399 45.92 35.77C45.966 37.5217 45.585 39.2584 44.81 40.83C44.1177 42.1877 43.1343 43.376 41.93 44.31C40.7338 45.2214 39.3769 45.8999 37.93 46.31C36.502 46.736 35.0202 46.9549 33.53 46.96H25.59V24.57ZM32.9 43.48C33.9438 43.4801 34.984 43.3593 36 43.12C37.0025 42.8953 37.9528 42.4812 38.8 41.9C39.6453 41.284 40.331 40.4749 40.8 39.54C41.3649 38.3694 41.636 37.0789 41.59 35.78C41.6429 34.429 41.3721 33.085 40.8 31.86C40.3391 30.9171 39.652 30.1029 38.8 29.49C37.9548 28.9157 37.0025 28.5178 36 28.32C34.98 28.1095 33.9415 28.0022 32.9 28H29.58V43.5H32.9V43.48Z" fill="white"/>
<path d="M48.49 24.57H52.49V43.42H62.01V46.96H48.49V24.57Z" fill="white"/>
<path d="M64.65 24.57H79.48V28.05H68.64V33.74H78.92V37.09H68.64V43.42H80.05V46.96H64.65V24.57Z" fill="white"/>
<path d="M89.99 37.25L81.57 24.57H86.44L92.07 34L97.76 24.57H102.38L93.97 37.25V46.96H89.97V37.25H89.99Z" fill="white"/>
</g>
<defs>
<clipPath id="clip0">
<rect width="102.38" height="23.53" fill="white"/>
</clipPath>
<clipPath id="clip1">
<rect y="24" width="102.38" height="23.53" fill="white"/>
</clipPath>
</defs>
</svg>
