<?xml version="1.0" encoding="UTF-8"?>
<svg width="85px" height="52px" viewBox="0 0 85 52" version="1.1" xmlns="http://www.w3.org/2000/svg" xmlns:xlink="http://www.w3.org/1999/xlink">
    <title>Logo stacked</title>
    <g id="Logo-stacked" stroke="none" stroke-width="1" fill="none" fill-rule="evenodd">
        <g transform="translate(2.000000, 2.000000)">
            <path d="M2.702,48 L2.702,42.736 L4.172,46.32 L5.936,46.32 L7.434,42.736 L7.434,48 L9.464,48 L9.464,39.222 L6.916,39.222 L5.096,43.646 L3.318,39.222 L0.672,39.222 L0.672,48 L2.702,48 Z M12.9564615,48.14 C13.2644615,48.14 13.5911282,48.0746667 13.9364615,47.944 C14.2817949,47.8133333 14.5991282,47.636 14.8884615,47.412 L14.8884615,47.412 L14.9304615,47.412 L15.0004615,48 L16.9604615,48 L16.9604615,43.212 C16.9604615,42.4653333 16.7387949,41.9006667 16.2954615,41.518 C15.8521282,41.1353333 15.2011282,40.944 14.3424615,40.944 C13.7357949,40.944 13.2037949,40.965 12.7464615,41.007 C12.2891282,41.049 11.8877949,41.112 11.5424615,41.196 L11.5424615,41.196 L11.5424615,42.918 C11.8317949,42.862 12.1514615,42.8223333 12.5014615,42.799 C12.8514615,42.7756667 13.2504615,42.764 13.6984615,42.764 C14.0904615,42.764 14.3821282,42.8176667 14.5734615,42.925 C14.7647949,43.0323333 14.8604615,43.198 14.8604615,43.422 L14.8604615,43.422 L14.8604615,43.926 C14.6831282,43.8886667 14.4754615,43.8583333 14.2374615,43.835 C13.9994615,43.8116667 13.7684615,43.8 13.5444615,43.8 C12.5737949,43.8 11.8901282,43.9586667 11.4934615,44.276 C11.0967949,44.5933333 10.8984615,45.144 10.8984615,45.928 C10.8984615,46.6933333 11.0641282,47.2533333 11.3954615,47.608 C11.7267949,47.9626667 12.2471282,48.14 12.9564615,48.14 Z M13.6004615,46.418 C13.3297949,46.418 13.1407949,46.3736667 13.0334615,46.285 C12.9261282,46.1963333 12.8724615,46.0353333 12.8724615,45.802 C12.8724615,45.55 12.9377949,45.3843333 13.0684615,45.305 C13.1991282,45.2256667 13.4511282,45.186 13.8244615,45.186 C14.0671282,45.186 14.2724615,45.193 14.4404615,45.207 C14.6084615,45.221 14.7484615,45.242 14.8604615,45.27 L14.8604615,45.27 L14.8604615,46.124 C14.6737949,46.208 14.4684615,46.278 14.2444615,46.334 C14.0204615,46.39 13.8057949,46.418 13.6004615,46.418 Z M20.8309231,40.328 L20.8309231,38.69 L18.6189231,38.69 L18.6189231,40.328 L20.8309231,40.328 Z M20.7749231,48 L20.7749231,41.084 L18.6749231,41.084 L18.6749231,48 L20.7749231,48 Z M24.6173846,48 L24.6173846,43.156 C24.7947179,43.0533333 25.0000513,42.974 25.2333846,42.918 C25.4667179,42.862 25.7093846,42.834 25.9613846,42.834 C26.2973846,42.834 26.5517179,42.89 26.7243846,43.002 C26.8970513,43.114 26.9833846,43.2773333 26.9833846,43.492 L26.9833846,43.492 L26.9833846,48 L29.0833846,48 L29.0833846,43.212 C29.0833846,42.4653333 28.8827179,41.9006667 28.4813846,41.518 C28.0800513,41.1353333 27.4873846,40.944 26.7033846,40.944 C26.2087179,40.944 25.7863846,41.0116667 25.4363846,41.147 C25.0863846,41.2823333 24.7620513,41.504 24.4633846,41.812 L24.4633846,41.812 L24.4213846,41.812 L24.3373846,41.084 L22.5173846,41.084 L22.5173846,48 L24.6173846,48 Z M33.7798462,48.14 C34.0225128,48.14 34.3001795,48.1096667 34.6128462,48.049 C34.9255128,47.9883333 35.1565128,47.9253333 35.3058462,47.86 L35.3058462,47.86 L35.3058462,46.068 C35.1658462,46.096 34.9931795,46.1216667 34.7878462,46.145 C34.5825128,46.1683333 34.4098462,46.18 34.2698462,46.18 C33.8685128,46.18 33.6001795,46.1356667 33.4648462,46.047 C33.3295128,45.9583333 33.2618462,45.7833333 33.2618462,45.522 L33.2618462,45.522 L33.2618462,42.834 L35.2218462,42.834 L35.2218462,41.084 L33.2618462,41.084 L33.2618462,39.474 L31.4978462,39.474 L31.2318462,41.084 L30.3498462,41.084 L30.3498462,42.834 L31.1618462,42.834 L31.1618462,45.606 C31.1618462,46.502 31.3648462,47.1483333 31.7708462,47.545 C32.1768462,47.9416667 32.8465128,48.14 33.7798462,48.14 Z M39.4283077,48.14 C40.0163077,48.14 40.5763077,48.0886667 41.1083077,47.986 C41.6403077,47.8833333 42.0183077,47.762 42.2423077,47.622 L42.2423077,47.622 L42.2423077,45.956 C41.971641,46.0306667 41.6029744,46.0983333 41.1363077,46.159 C40.669641,46.2196667 40.2123077,46.25 39.7643077,46.25 C39.241641,46.25 38.8823077,46.1753333 38.6863077,46.026 C38.4903077,45.8766667 38.387641,45.6106667 38.3783077,45.228 L38.3783077,45.228 L42.4663077,45.228 C42.4943077,44.9946667 42.5129744,44.7893333 42.5223077,44.612 C42.531641,44.4346667 42.5363077,44.1966667 42.5363077,43.898 C42.5363077,42.7966667 42.3099744,42.029 41.8573077,41.595 C41.404641,41.161 40.627641,40.944 39.5263077,40.944 C38.3969744,40.944 37.5709744,41.2333333 37.0483077,41.812 C36.525641,42.3906667 36.2643077,43.3006667 36.2643077,44.542 C36.2643077,45.8113333 36.511641,46.7283333 37.0063077,47.293 C37.5009744,47.8576667 38.3083077,48.14 39.4283077,48.14 Z M40.6323077,43.87 L38.3783077,43.87 C38.3783077,43.422 38.457641,43.121 38.6163077,42.967 C38.7749744,42.813 39.0783077,42.736 39.5263077,42.736 C39.9649744,42.736 40.256641,42.792 40.4013077,42.904 C40.5459744,43.016 40.6229744,43.2353333 40.6323077,43.562 L40.6323077,43.562 L40.6323077,43.87 Z M46.1407692,48 L46.1407692,43.156 C46.3181026,43.0533333 46.5234359,42.974 46.7567692,42.918 C46.9901026,42.862 47.2327692,42.834 47.4847692,42.834 C47.8207692,42.834 48.0751026,42.89 48.2477692,43.002 C48.4204359,43.114 48.5067692,43.2773333 48.5067692,43.492 L48.5067692,43.492 L48.5067692,48 L50.6067692,48 L50.6067692,43.212 C50.6067692,42.4653333 50.4061026,41.9006667 50.0047692,41.518 C49.6034359,41.1353333 49.0107692,40.944 48.2267692,40.944 C47.7321026,40.944 47.3097692,41.0116667 46.9597692,41.147 C46.6097692,41.2823333 46.2854359,41.504 45.9867692,41.812 L45.9867692,41.812 L45.9447692,41.812 L45.8607692,41.084 L44.0407692,41.084 L44.0407692,48 L46.1407692,48 Z M54.0012308,48.14 C54.3092308,48.14 54.6358974,48.0746667 54.9812308,47.944 C55.3265641,47.8133333 55.6438974,47.636 55.9332308,47.412 L55.9332308,47.412 L55.9752308,47.412 L56.0452308,48 L58.0052308,48 L58.0052308,43.212 C58.0052308,42.4653333 57.7835641,41.9006667 57.3402308,41.518 C56.8968974,41.1353333 56.2458974,40.944 55.3872308,40.944 C54.7805641,40.944 54.2485641,40.965 53.7912308,41.007 C53.3338974,41.049 52.9325641,41.112 52.5872308,41.196 L52.5872308,41.196 L52.5872308,42.918 C52.8765641,42.862 53.1962308,42.8223333 53.5462308,42.799 C53.8962308,42.7756667 54.2952308,42.764 54.7432308,42.764 C55.1352308,42.764 55.4268974,42.8176667 55.6182308,42.925 C55.8095641,43.0323333 55.9052308,43.198 55.9052308,43.422 L55.9052308,43.422 L55.9052308,43.926 C55.7278974,43.8886667 55.5202308,43.8583333 55.2822308,43.835 C55.0442308,43.8116667 54.8132308,43.8 54.5892308,43.8 C53.6185641,43.8 52.9348974,43.9586667 52.5382308,44.276 C52.1415641,44.5933333 51.9432308,45.144 51.9432308,45.928 C51.9432308,46.6933333 52.1088974,47.2533333 52.4402308,47.608 C52.7715641,47.9626667 53.2918974,48.14 54.0012308,48.14 Z M54.6452308,46.418 C54.3745641,46.418 54.1855641,46.3736667 54.0782308,46.285 C53.9708974,46.1963333 53.9172308,46.0353333 53.9172308,45.802 C53.9172308,45.55 53.9825641,45.3843333 54.1132308,45.305 C54.2438974,45.2256667 54.4958974,45.186 54.8692308,45.186 C55.1118974,45.186 55.3172308,45.193 55.4852308,45.207 C55.6532308,45.221 55.7932308,45.242 55.9052308,45.27 L55.9052308,45.27 L55.9052308,46.124 C55.7185641,46.208 55.5132308,46.278 55.2892308,46.334 C55.0652308,46.39 54.8505641,46.418 54.6452308,46.418 Z M61.8196923,48 L61.8196923,43.156 C61.9970256,43.0533333 62.202359,42.974 62.4356923,42.918 C62.6690256,42.862 62.9116923,42.834 63.1636923,42.834 C63.4996923,42.834 63.7540256,42.89 63.9266923,43.002 C64.099359,43.114 64.1856923,43.2773333 64.1856923,43.492 L64.1856923,43.492 L64.1856923,48 L66.2856923,48 L66.2856923,43.212 C66.2856923,42.4653333 66.0850256,41.9006667 65.6836923,41.518 C65.282359,41.1353333 64.6896923,40.944 63.9056923,40.944 C63.4110256,40.944 62.9886923,41.0116667 62.6386923,41.147 C62.2886923,41.2823333 61.964359,41.504 61.6656923,41.812 L61.6656923,41.812 L61.6236923,41.812 L61.5396923,41.084 L59.7196923,41.084 L59.7196923,48 L61.8196923,48 Z M70.4921538,48.14 C71.0241538,48.14 71.5421538,48.0886667 72.0461538,47.986 C72.5501538,47.8833333 72.9141538,47.762 73.1381538,47.622 L73.1381538,47.622 L73.1381538,45.886 C72.8488205,45.97 72.5011538,46.04 72.0951538,46.096 C71.6891538,46.152 71.2994872,46.18 70.9261538,46.18 C70.4688205,46.18 70.1771538,46.082 70.0511538,45.886 C69.9251538,45.69 69.8621538,45.242 69.8621538,44.542 C69.8621538,43.7673333 69.9391538,43.289 70.0931538,43.107 C70.2471538,42.925 70.6461538,42.834 71.2901538,42.834 C71.5328205,42.834 71.7568205,42.8363333 71.9621538,42.841 C72.1674872,42.8456667 72.4988205,42.8666667 72.9561538,42.904 L72.9561538,42.904 L72.9561538,41.042 C72.6668205,41.0046667 72.3961538,40.979 72.1441538,40.965 C71.8921538,40.951 71.6074872,40.944 71.2901538,40.944 C69.9834872,40.944 69.0688205,41.2123333 68.5461538,41.749 C68.0234872,42.2856667 67.7621538,43.2166667 67.7621538,44.542 C67.7621538,45.8673333 67.9651538,46.7983333 68.3711538,47.335 C68.7771538,47.8716667 69.4841538,48.14 70.4921538,48.14 Z M77.4566154,48.14 C78.0446154,48.14 78.6046154,48.0886667 79.1366154,47.986 C79.6686154,47.8833333 80.0466154,47.762 80.2706154,47.622 L80.2706154,47.622 L80.2706154,45.956 C79.9999487,46.0306667 79.6312821,46.0983333 79.1646154,46.159 C78.6979487,46.2196667 78.2406154,46.25 77.7926154,46.25 C77.2699487,46.25 76.9106154,46.1753333 76.7146154,46.026 C76.5186154,45.8766667 76.4159487,45.6106667 76.4066154,45.228 L76.4066154,45.228 L80.4946154,45.228 C80.5226154,44.9946667 80.5412821,44.7893333 80.5506154,44.612 C80.5599487,44.4346667 80.5646154,44.1966667 80.5646154,43.898 C80.5646154,42.7966667 80.3382821,42.029 79.8856154,41.595 C79.4329487,41.161 78.6559487,40.944 77.5546154,40.944 C76.4252821,40.944 75.5992821,41.2333333 75.0766154,41.812 C74.5539487,42.3906667 74.2926154,43.3006667 74.2926154,44.542 C74.2926154,45.8113333 74.5399487,46.7283333 75.0346154,47.293 C75.5292821,47.8576667 76.3366154,48.14 77.4566154,48.14 Z M78.6606154,43.87 L76.4066154,43.87 C76.4066154,43.422 76.4859487,43.121 76.6446154,42.967 C76.8032821,42.813 77.1066154,42.736 77.5546154,42.736 C77.9932821,42.736 78.2849487,42.792 78.4296154,42.904 C78.5742821,43.016 78.6512821,43.2353333 78.6606154,43.562 L78.6606154,43.562 L78.6606154,43.87 Z" id="Maintenance" fill="#070707" fill-rule="nonzero"></path>
            <g id="Buildings" stroke="#0DC8B0">
                <line x1="2" y1="24.5" x2="6" y2="24.5" id="Path-7" stroke-linecap="round" stroke-linejoin="bevel"></line>
                <line x1="2" y1="19.5" x2="6" y2="19.5" id="Path-7" stroke-linecap="round" stroke-linejoin="bevel"></line>
                <polygon id="Path-4" stroke-linejoin="round" points="7 0 7 29 13.6354806 29 13.6354806 13.1530442 18 13.1530442 18 3"></polygon>
                <polygon id="Path-6" stroke-linejoin="round" points="7 10 0 10 0 29 7 29"></polygon>
                <line x1="2" y1="14.5" x2="6" y2="14.5" id="Path-7" stroke-linecap="round" stroke-linejoin="bevel"></line>
                <path d="M23,13 L23,29 L13.524771,29 L13.524771,13 L23,13 Z" id="Path-8" stroke-linecap="round" stroke-linejoin="bevel"></path>
                <line x1="9" y1="19.5" x2="12" y2="19.5" id="Path-7" stroke-linecap="round" stroke-linejoin="bevel"></line>
                <line x1="9" y1="14.5" x2="12" y2="14.5" id="Path-7" stroke-linecap="round" stroke-linejoin="bevel"></line>
                <line x1="9" y1="24.5" x2="12" y2="24.5" id="Path-7" stroke-linecap="round" stroke-linejoin="bevel"></line>
                <line x1="9" y1="9.5" x2="12" y2="9.5" id="Path-7" stroke-linecap="round" stroke-linejoin="bevel"></line>
                <line x1="9" y1="4.5" x2="12" y2="4.5" id="Path-7" stroke-linecap="round" stroke-linejoin="bevel"></line>
                <line x1="16" y1="17.5" x2="20" y2="17.5" id="Path-7" stroke-linecap="round" stroke-linejoin="bevel"></line>
                <line x1="16" y1="21.5" x2="20" y2="21.5" id="Path-7" stroke-linecap="round" stroke-linejoin="bevel"></line>
                <line x1="16" y1="25.5" x2="20" y2="25.5" id="Path-7" stroke-linecap="round" stroke-linejoin="bevel"></line>
            </g>
            <line x1="0.75" y1="34.75" x2="80.5" y2="34.5" id="Path-7" stroke="#0DC8B0" stroke-linecap="round" stroke-linejoin="bevel"></line>
            <path d="M37.8095358,29 C34.9408498,29 32.7554477,28.1009705 31.2532641,26.3028846 C29.7510805,24.5047987 29,21.8942479 29,18.4711538 C29,16.2596043 29.4070372,14.3653925 30.2211238,12.7884615 C31.0352104,11.2115306 32.1545626,10.0192348 33.5792142,9.21153846 C35.0038657,8.40384212 36.5980947,8 38.361949,8 C39.738143,8 40.9350262,8.21634399 41.9526344,8.64903846 C42.9702426,9.08173293 43.905459,9.69230375 44.7583117,10.4807692 L42.2579153,13.0480769 C41.6182759,12.4903818 41.0222571,12.0865397 40.4698412,11.8365385 C39.9174253,11.5865372 39.2923325,11.4615385 38.594544,11.4615385 C37.1408179,11.4615385 35.9972373,12.0336481 35.1637677,13.1778846 C34.3302981,14.3221211 33.9135695,16.0961418 33.9135695,18.5 C33.9135695,21.076936 34.2236931,22.8942255 34.8439495,23.9519231 C35.464206,25.0096207 36.4624162,25.5384615 37.8386102,25.5384615 C38.7496119,25.5384615 39.583069,25.3365405 40.3390065,24.9326923 L40.3390065,20.3461538 L37.8095358,20.3461538 L37.3443458,17.0576923 L44.8455348,17.0576923 L44.8455348,26.9807692 C42.6358712,28.3269298 40.2905617,29 37.8095358,29 Z M60.8906271,21.3269231 C60.8906271,23.6730887 60.178312,25.5288393 58.7536604,26.8942308 C57.3290089,28.2596222 55.3374341,28.9423077 52.7788762,28.9423077 C51.5383633,28.9423077 50.4480851,28.7884631 49.5080089,28.4807692 C48.5679328,28.1730754 47.6327164,27.7019263 46.7023317,27.0673077 L48.504943,24.1538462 C49.2027315,24.6153869 49.8520527,24.9423067 50.4529262,25.1346154 C51.0537996,25.326924 51.7418863,25.4230769 52.5172068,25.4230769 C53.5832726,25.4230769 54.4506495,25.0817342 55.1193635,24.3990385 C55.7880775,23.7163427 56.1224294,22.7019298 56.1224294,21.3557692 L56.1224294,11.9807692 L49.9586618,11.9807692 L49.9586618,8.51923077 L60.8906271,8.51923077 L60.8906271,21.3269231 Z M65.5094897,28.5096154 L65.5094897,8.51923077 L70.2776873,8.51923077 L70.2776873,24.7596154 L79,24.7596154 L78.53481,28.5096154 L65.5094897,28.5096154 Z" id="GJL" fill="#070707" fill-rule="nonzero"></path>
        </g>
    </g>
</svg>