<?xml version="1.0" encoding="UTF-8"?>
<svg width="174px" height="33px" viewBox="0 0 174 33" version="1.1" xmlns="http://www.w3.org/2000/svg" xmlns:xlink="http://www.w3.org/1999/xlink">
    <!-- Generator: Sketch 61.2 (89653) - https://sketch.com -->
    <title>GJL Logo</title>
    <desc>Created with Sketch.</desc>
    <defs>
        <path d="M87.895,23 L87.895,17.36 L89.47,21.2 L91.36,21.2 L92.965,17.36 L92.965,23 L95.14,23 L95.14,13.595 L92.41,13.595 L90.46,18.335 L88.555,13.595 L85.72,13.595 L85.72,23 L87.895,23 Z M98.8819231,23.15 C99.2119231,23.15 99.5619231,23.08 99.9319231,22.94 C100.301923,22.8 100.641923,22.61 100.951923,22.37 L100.951923,22.37 L100.996923,22.37 L101.071923,23 L103.171923,23 L103.171923,17.87 C103.171923,17.07 102.934423,16.465 102.459423,16.055 C101.984423,15.645 101.286923,15.44 100.366923,15.44 C99.7169231,15.44 99.1469231,15.4625 98.6569231,15.5075 C98.1669231,15.5525 97.7369231,15.62 97.3669231,15.71 L97.3669231,15.71 L97.3669231,17.555 C97.6769231,17.495 98.0194231,17.4525 98.3944231,17.4275 C98.7694231,17.4025 99.1969231,17.39 99.6769231,17.39 C100.096923,17.39 100.409423,17.4475 100.614423,17.5625 C100.819423,17.6775 100.921923,17.855 100.921923,18.095 L100.921923,18.095 L100.921923,18.635 C100.731923,18.595 100.509423,18.5625 100.254423,18.5375 C99.9994231,18.5125 99.7519231,18.5 99.5119231,18.5 C98.4719231,18.5 97.7394231,18.67 97.3144231,19.01 C96.8894231,19.35 96.6769231,19.94 96.6769231,20.78 C96.6769231,21.6 96.8544231,22.2 97.2094231,22.58 C97.5644231,22.96 98.1219231,23.15 98.8819231,23.15 Z M99.5719231,21.305 C99.2819231,21.305 99.0794231,21.2575 98.9644231,21.1625 C98.8494231,21.0675 98.7919231,20.895 98.7919231,20.645 C98.7919231,20.375 98.8619231,20.1975 99.0019231,20.1125 C99.1419231,20.0275 99.4119231,19.985 99.8119231,19.985 C100.071923,19.985 100.291923,19.9925 100.471923,20.0075 C100.651923,20.0225 100.801923,20.045 100.921923,20.075 L100.921923,20.075 L100.921923,20.99 C100.721923,21.08 100.501923,21.155 100.261923,21.215 C100.021923,21.275 99.7919231,21.305 99.5719231,21.305 Z M107.318846,14.78 L107.318846,13.025 L104.948846,13.025 L104.948846,14.78 L107.318846,14.78 Z M107.258846,23 L107.258846,15.59 L105.008846,15.59 L105.008846,23 L107.258846,23 Z M111.375769,23 L111.375769,17.81 C111.565769,17.7 111.785769,17.615 112.035769,17.555 C112.285769,17.495 112.545769,17.465 112.815769,17.465 C113.175769,17.465 113.448269,17.525 113.633269,17.645 C113.818269,17.765 113.910769,17.94 113.910769,18.17 L113.910769,18.17 L113.910769,23 L116.160769,23 L116.160769,17.87 C116.160769,17.07 115.945769,16.465 115.515769,16.055 C115.085769,15.645 114.450769,15.44 113.610769,15.44 C113.080769,15.44 112.628269,15.5125 112.253269,15.6575 C111.878269,15.8025 111.530769,16.04 111.210769,16.37 L111.210769,16.37 L111.165769,16.37 L111.075769,15.59 L109.125769,15.59 L109.125769,23 L111.375769,23 Z M121.192692,23.15 C121.452692,23.15 121.750192,23.1175 122.085192,23.0525 C122.420192,22.9875 122.667692,22.92 122.827692,22.85 L122.827692,22.85 L122.827692,20.93 C122.677692,20.96 122.492692,20.9875 122.272692,21.0125 C122.052692,21.0375 121.867692,21.05 121.717692,21.05 C121.287692,21.05 121.000192,21.0025 120.855192,20.9075 C120.710192,20.8125 120.637692,20.625 120.637692,20.345 L120.637692,20.345 L120.637692,17.465 L122.737692,17.465 L122.737692,15.59 L120.637692,15.59 L120.637692,13.865 L118.747692,13.865 L118.462692,15.59 L117.517692,15.59 L117.517692,17.465 L118.387692,17.465 L118.387692,20.435 C118.387692,21.395 118.605192,22.0875 119.040192,22.5125 C119.475192,22.9375 120.192692,23.15 121.192692,23.15 Z M127.244615,23.15 C127.874615,23.15 128.474615,23.095 129.044615,22.985 C129.614615,22.875 130.019615,22.745 130.259615,22.595 L130.259615,22.595 L130.259615,20.81 C129.969615,20.89 129.574615,20.9625 129.074615,21.0275 C128.574615,21.0925 128.084615,21.125 127.604615,21.125 C127.044615,21.125 126.659615,21.045 126.449615,20.885 C126.239615,20.725 126.129615,20.44 126.119615,20.03 L126.119615,20.03 L130.499615,20.03 C130.529615,19.78 130.549615,19.56 130.559615,19.37 C130.569615,19.18 130.574615,18.925 130.574615,18.605 C130.574615,17.425 130.332115,16.6025 129.847115,16.1375 C129.362115,15.6725 128.529615,15.44 127.349615,15.44 C126.139615,15.44 125.254615,15.75 124.694615,16.37 C124.134615,16.99 123.854615,17.965 123.854615,19.295 C123.854615,20.655 124.119615,21.6375 124.649615,22.2425 C125.179615,22.8475 126.044615,23.15 127.244615,23.15 Z M128.534615,18.575 L126.119615,18.575 C126.119615,18.095 126.204615,17.7725 126.374615,17.6075 C126.544615,17.4425 126.869615,17.36 127.349615,17.36 C127.819615,17.36 128.132115,17.42 128.287115,17.54 C128.442115,17.66 128.524615,17.895 128.534615,18.245 L128.534615,18.245 L128.534615,18.575 Z M134.436538,23 L134.436538,17.81 C134.626538,17.7 134.846538,17.615 135.096538,17.555 C135.346538,17.495 135.606538,17.465 135.876538,17.465 C136.236538,17.465 136.509038,17.525 136.694038,17.645 C136.879038,17.765 136.971538,17.94 136.971538,18.17 L136.971538,18.17 L136.971538,23 L139.221538,23 L139.221538,17.87 C139.221538,17.07 139.006538,16.465 138.576538,16.055 C138.146538,15.645 137.511538,15.44 136.671538,15.44 C136.141538,15.44 135.689038,15.5125 135.314038,15.6575 C134.939038,15.8025 134.591538,16.04 134.271538,16.37 L134.271538,16.37 L134.226538,16.37 L134.136538,15.59 L132.186538,15.59 L132.186538,23 L134.436538,23 Z M142.858462,23.15 C143.188462,23.15 143.538462,23.08 143.908462,22.94 C144.278462,22.8 144.618462,22.61 144.928462,22.37 L144.928462,22.37 L144.973462,22.37 L145.048462,23 L147.148462,23 L147.148462,17.87 C147.148462,17.07 146.910962,16.465 146.435962,16.055 C145.960962,15.645 145.263462,15.44 144.343462,15.44 C143.693462,15.44 143.123462,15.4625 142.633462,15.5075 C142.143462,15.5525 141.713462,15.62 141.343462,15.71 L141.343462,15.71 L141.343462,17.555 C141.653462,17.495 141.995962,17.4525 142.370962,17.4275 C142.745962,17.4025 143.173462,17.39 143.653462,17.39 C144.073462,17.39 144.385962,17.4475 144.590962,17.5625 C144.795962,17.6775 144.898462,17.855 144.898462,18.095 L144.898462,18.095 L144.898462,18.635 C144.708462,18.595 144.485962,18.5625 144.230962,18.5375 C143.975962,18.5125 143.728462,18.5 143.488462,18.5 C142.448462,18.5 141.715962,18.67 141.290962,19.01 C140.865962,19.35 140.653462,19.94 140.653462,20.78 C140.653462,21.6 140.830962,22.2 141.185962,22.58 C141.540962,22.96 142.098462,23.15 142.858462,23.15 Z M143.548462,21.305 C143.258462,21.305 143.055962,21.2575 142.940962,21.1625 C142.825962,21.0675 142.768462,20.895 142.768462,20.645 C142.768462,20.375 142.838462,20.1975 142.978462,20.1125 C143.118462,20.0275 143.388462,19.985 143.788462,19.985 C144.048462,19.985 144.268462,19.9925 144.448462,20.0075 C144.628462,20.0225 144.778462,20.045 144.898462,20.075 L144.898462,20.075 L144.898462,20.99 C144.698462,21.08 144.478462,21.155 144.238462,21.215 C143.998462,21.275 143.768462,21.305 143.548462,21.305 Z M151.235385,23 L151.235385,17.81 C151.425385,17.7 151.645385,17.615 151.895385,17.555 C152.145385,17.495 152.405385,17.465 152.675385,17.465 C153.035385,17.465 153.307885,17.525 153.492885,17.645 C153.677885,17.765 153.770385,17.94 153.770385,18.17 L153.770385,18.17 L153.770385,23 L156.020385,23 L156.020385,17.87 C156.020385,17.07 155.805385,16.465 155.375385,16.055 C154.945385,15.645 154.310385,15.44 153.470385,15.44 C152.940385,15.44 152.487885,15.5125 152.112885,15.6575 C151.737885,15.8025 151.390385,16.04 151.070385,16.37 L151.070385,16.37 L151.025385,16.37 L150.935385,15.59 L148.985385,15.59 L148.985385,23 L151.235385,23 Z M160.527308,23.15 C161.097308,23.15 161.652308,23.095 162.192308,22.985 C162.732308,22.875 163.122308,22.745 163.362308,22.595 L163.362308,22.595 L163.362308,20.735 C163.052308,20.825 162.679808,20.9 162.244808,20.96 C161.809808,21.02 161.392308,21.05 160.992308,21.05 C160.502308,21.05 160.189808,20.945 160.054808,20.735 C159.919808,20.525 159.852308,20.045 159.852308,19.295 C159.852308,18.465 159.934808,17.9525 160.099808,17.7575 C160.264808,17.5625 160.692308,17.465 161.382308,17.465 C161.642308,17.465 161.882308,17.4675 162.102308,17.4725 C162.322308,17.4775 162.677308,17.5 163.167308,17.54 L163.167308,17.54 L163.167308,15.545 C162.857308,15.505 162.567308,15.4775 162.297308,15.4625 C162.027308,15.4475 161.722308,15.44 161.382308,15.44 C159.982308,15.44 159.002308,15.7275 158.442308,16.3025 C157.882308,16.8775 157.602308,17.875 157.602308,19.295 C157.602308,20.715 157.819808,21.7125 158.254808,22.2875 C158.689808,22.8625 159.447308,23.15 160.527308,23.15 Z M167.989231,23.15 C168.619231,23.15 169.219231,23.095 169.789231,22.985 C170.359231,22.875 170.764231,22.745 171.004231,22.595 L171.004231,22.595 L171.004231,20.81 C170.714231,20.89 170.319231,20.9625 169.819231,21.0275 C169.319231,21.0925 168.829231,21.125 168.349231,21.125 C167.789231,21.125 167.404231,21.045 167.194231,20.885 C166.984231,20.725 166.874231,20.44 166.864231,20.03 L166.864231,20.03 L171.244231,20.03 C171.274231,19.78 171.294231,19.56 171.304231,19.37 C171.314231,19.18 171.319231,18.925 171.319231,18.605 C171.319231,17.425 171.076731,16.6025 170.591731,16.1375 C170.106731,15.6725 169.274231,15.44 168.094231,15.44 C166.884231,15.44 165.999231,15.75 165.439231,16.37 C164.879231,16.99 164.599231,17.965 164.599231,19.295 C164.599231,20.655 164.864231,21.6375 165.394231,22.2425 C165.924231,22.8475 166.789231,23.15 167.989231,23.15 Z M169.279231,18.575 L166.864231,18.575 C166.864231,18.095 166.949231,17.7725 167.119231,17.6075 C167.289231,17.4425 167.614231,17.36 168.094231,17.36 C168.564231,17.36 168.876731,17.42 169.031731,17.54 C169.186731,17.66 169.269231,17.895 169.279231,18.245 L169.279231,18.245 L169.279231,18.575 Z" id="path-1"></path>
    </defs>
    <g id="GJL-Logo" stroke="none" stroke-width="1" fill="none" fill-rule="evenodd">
        <g id="Logo" transform="translate(1.000000, 2.000000)">
            <path d="M38.454,23.493 C35.5926524,23.493 33.4128408,22.5891757 31.9145,20.7815 C30.4161592,18.9738243 29.667,16.3493505 29.667,12.908 C29.667,10.6846556 30.0729959,8.78034126 30.885,7.195 C31.6970041,5.60965874 32.8134929,4.41100406 34.2345,3.599 C35.6555071,2.78699594 37.2456579,2.381 39.005,2.381 C40.3776735,2.381 41.5714949,2.59849782 42.5865,3.0335 C43.6015051,3.46850218 44.5343291,4.08232937 45.385,4.875 L42.891,7.456 C42.2529968,6.89533053 41.6585028,6.48933459 41.1075,6.238 C40.5564972,5.98666541 39.9330035,5.861 39.237,5.861 C37.7869928,5.861 36.6463375,6.43616092 35.815,7.5865 C34.9836625,8.73683908 34.568,10.5203212 34.568,12.937 C34.568,15.5276796 34.8773302,17.3546614 35.496,18.418 C36.1146698,19.4813386 37.1103265,20.013 38.483,20.013 C39.3916712,20.013 40.2229962,19.810002 40.977,19.404 L40.977,14.793 L38.454,14.793 L37.99,11.487 L45.472,11.487 L45.472,21.463 C43.267989,22.8163401 40.928679,23.493 38.454,23.493 Z M61.476047,15.779 C61.476047,18.1376785 60.7655541,20.0033265 59.344547,21.376 C57.9235399,22.7486735 55.9370598,23.435 53.385047,23.435 C52.1477075,23.435 51.0602184,23.2803349 50.122547,22.971 C49.1848756,22.6616651 48.2520516,22.1880032 47.324047,21.55 L49.122047,18.621 C49.8180505,19.0850023 50.4657107,19.4136657 51.065047,19.607 C51.6643833,19.8003343 52.3507098,19.897 53.124047,19.897 C54.1873857,19.897 55.0525437,19.5538368 55.719547,18.8675 C56.3865503,18.1811632 56.720047,17.1613401 56.720047,15.808 L56.720047,6.383 L50.572047,6.383 L50.572047,2.903 L61.476047,2.903 L61.476047,15.779 Z M66.083094,23 L66.083094,2.903 L70.839094,2.903 L70.839094,19.23 L79.539094,19.23 L79.075094,23 L66.083094,23 Z" id="GJL" fill="#070707" fill-rule="nonzero"></path>
            <g id="Maintenance" fill-rule="nonzero">
                <use fill="#303030" xlink:href="#path-1"></use>
                <use fill="#070707" xlink:href="#path-1"></use>
            </g>
            <g id="Buildings" transform="translate(0.750000, 0.000000)" stroke="#0DC8B0">
                <line x1="2.11523438" y1="24.5" x2="5.37890625" y2="24.5" id="Path-7" stroke-linecap="round" stroke-linejoin="bevel"></line>
                <line x1="2.11523438" y1="19.5" x2="5.37890625" y2="19.5" id="Path-7" stroke-linecap="round" stroke-linejoin="bevel"></line>
                <polygon id="Path-4" stroke-linejoin="round" points="7.25 0 7.25 29 13.6495092 29 13.6495092 13.1530442 17.8588173 13.1530442 17.8588173 3"></polygon>
                <polygon id="Path-6" stroke-linejoin="round" points="7.25 9.62353516 0.25 9.62353516 0.25 29 7.25 29"></polygon>
                <line x1="2.11523438" y1="14.5" x2="5.37890625" y2="14.5" id="Path-7" stroke-linecap="round" stroke-linejoin="bevel"></line>
                <path d="M23.4555664,13.0932617 L23.4555664,29 L13.75,29 L13.75,13.0932617 L23.4555664,13.0932617 Z" id="Path-8" stroke-linecap="round" stroke-linejoin="bevel"></path>
                <line x1="9.11523437" y1="19.5" x2="11.6118164" y2="19.5" id="Path-7" stroke-linecap="round" stroke-linejoin="bevel"></line>
                <line x1="9.11523437" y1="14.5" x2="11.6118164" y2="14.5" id="Path-7" stroke-linecap="round" stroke-linejoin="bevel"></line>
                <line x1="9.11523437" y1="24.5" x2="11.6118164" y2="24.5" id="Path-7" stroke-linecap="round" stroke-linejoin="bevel"></line>
                <line x1="9.11523437" y1="9.5" x2="11.6118164" y2="9.5" id="Path-7" stroke-linecap="round" stroke-linejoin="bevel"></line>
                <line x1="9.11523437" y1="4.5" x2="11.6118164" y2="4.5" id="Path-7" stroke-linecap="round" stroke-linejoin="bevel"></line>
                <line x1="16.1152344" y1="17.5" x2="20.8178711" y2="17.5" id="Path-7" stroke-linecap="round" stroke-linejoin="bevel"></line>
                <line x1="16.1152344" y1="21.5" x2="20.8178711" y2="21.5" id="Path-7" stroke-linecap="round" stroke-linejoin="bevel"></line>
                <line x1="16.1152344" y1="25.5" x2="20.8178711" y2="25.5" id="Path-7" stroke-linecap="round" stroke-linejoin="bevel"></line>
                <line x1="22.25" y1="29" x2="169.750017" y2="28.5099667" id="Path-7" stroke-linecap="round" stroke-linejoin="bevel"></line>
            </g>
        </g>
    </g>
</svg>