<?xml version="1.0" encoding="UTF-8"?>
<svg width="25px" height="31px" viewBox="0 0 25 31" version="1.1" xmlns="http://www.w3.org/2000/svg" xmlns:xlink="http://www.w3.org/1999/xlink">
    <!-- Generator: Sketch 57.1 (83088) - https://sketch.com -->
    <title>Buildings</title>
    <desc>Created with Sketch.</desc>
    <g id="Page-1" stroke="none" stroke-width="1" fill="none" fill-rule="evenodd">
        <g id="Desktop" transform="translate(-55.000000, -80.000000)" stroke="#0DC8B0">
            <g id="Header">
                <g id="Logo" transform="translate(55.000000, 70.000000)">
                    <g id="Buildings" transform="translate(0.750000, 11.000000)">
                        <path d="M2.11523438,24.5 L5.37890625,24.5" id="Path-7" stroke-linecap="round" stroke-linejoin="bevel"></path>
                        <path d="M2.11523438,19.5 L5.37890625,19.5" id="Path-7" stroke-linecap="round" stroke-linejoin="bevel"></path>
                        <polygon id="Path-4" stroke-linejoin="round" points="7.25 0 7.25 29 13.6495092 29 13.6495092 13.1530442 17.8588173 13.1530442 17.8588173 3"></polygon>
                        <polygon id="Path-6" stroke-linejoin="round" points="7.25 9.62353516 0.25 9.62353516 0.25 29 7.25 29"></polygon>
                        <path d="M2.11523438,14.5 L5.37890625,14.5" id="Path-7" stroke-linecap="round" stroke-linejoin="bevel"></path>
                        <path d="M23.4555664,13.0932617 L23.4555664,29 L13.75,29 L13.75,13.0932617 L23.4555664,13.0932617 Z" id="Path-8" stroke-linecap="round" stroke-linejoin="bevel"></path>
                        <path d="M9.11523437,19.5 L11.6118164,19.5" id="Path-7" stroke-linecap="round" stroke-linejoin="bevel"></path>
                        <path d="M9.11523437,24.5 L11.6118164,24.5" id="Path-7" stroke-linecap="round" stroke-linejoin="bevel"></path>
                        <path d="M9.11523437,9.5 L11.6118164,9.5" id="Path-7" stroke-linecap="round" stroke-linejoin="bevel"></path>
                        <path d="M9.11523437,4.5 L11.6118164,4.5" id="Path-7" stroke-linecap="round" stroke-linejoin="bevel"></path>
                        <path d="M16.1152344,17.5 L20.8178711,17.5" id="Path-7" stroke-linecap="round" stroke-linejoin="bevel"></path>
                        <path d="M16.1152344,21.5 L20.8178711,21.5" id="Path-7" stroke-linecap="round" stroke-linejoin="bevel"></path>
                        <path d="M16.1152344,25.5 L20.8178711,25.5" id="Path-7" stroke-linecap="round" stroke-linejoin="bevel"></path>
                    </g>
                </g>
            </g>
        </g>
    </g>
</svg>