<?xml version="1.0" encoding="UTF-8"?>
<svg width="174px" height="31px" viewBox="0 0 174 31" version="1.1" xmlns="http://www.w3.org/2000/svg" xmlns:xlink="http://www.w3.org/1999/xlink">
    <!-- Generator: Sketch 57.1 (83088) - https://sketch.com -->
    <title>Logo</title>
    <desc>Created with Sketch.</desc>
    <g id="Page-1" stroke="none" stroke-width="1" fill="none" fill-rule="evenodd">
        <g id="Desktop" transform="translate(-55.000000, -80.000000)">
            <g id="Header">
                <g id="Logo" transform="translate(55.000000, 70.000000)">
                    <path d="M38.454,34.493 C35.5926524,34.493 33.4128408,33.5891757 31.9145,31.7815 C30.4161592,29.9738243 29.667,27.3493505 29.667,23.908 C29.667,21.6846556 30.0729959,19.7803413 30.885,18.195 C31.6970041,16.6096587 32.8134929,15.4110041 34.2345,14.599 C35.6555071,13.7869959 37.2456579,13.381 39.005,13.381 C40.3776735,13.381 41.5714949,13.5984978 42.5865,14.0335 C43.6015051,14.4685022 44.5343291,15.0823294 45.385,15.875 L42.891,18.456 C42.2529968,17.8953305 41.6585028,17.4893346 41.1075,17.238 C40.5564972,16.9866654 39.9330035,16.861 39.237,16.861 C37.7869928,16.861 36.6463375,17.4361609 35.815,18.5865 C34.9836625,19.7368391 34.568,21.5203212 34.568,23.937 C34.568,26.5276796 34.8773302,28.3546614 35.496,29.418 C36.1146698,30.4813386 37.1103265,31.013 38.483,31.013 C39.3916712,31.013 40.2229962,30.810002 40.977,30.404 L40.977,25.793 L38.454,25.793 L37.99,22.487 L45.472,22.487 L45.472,32.463 C43.267989,33.8163401 40.928679,34.493 38.454,34.493 Z M61.476047,26.779 C61.476047,29.1376785 60.7655541,31.0033265 59.344547,32.376 C57.9235399,33.7486735 55.9370598,34.435 53.385047,34.435 C52.1477075,34.435 51.0602184,34.2803349 50.122547,33.971 C49.1848756,33.6616651 48.2520516,33.1880032 47.324047,32.55 L49.122047,29.621 C49.8180505,30.0850023 50.4657107,30.4136657 51.065047,30.607 C51.6643833,30.8003343 52.3507098,30.897 53.124047,30.897 C54.1873857,30.897 55.0525437,30.5538368 55.719547,29.8675 C56.3865503,29.1811632 56.720047,28.1613401 56.720047,26.808 L56.720047,17.383 L50.572047,17.383 L50.572047,13.903 L61.476047,13.903 L61.476047,26.779 Z M66.083094,34 L66.083094,13.903 L70.839094,13.903 L70.839094,30.23 L79.539094,30.23 L79.075094,34 L66.083094,34 Z" id="GJL" fill="#070707" fill-rule="nonzero"></path>
                    <path d="M89.16,19.245 C89.5066684,19.245 89.8836646,19.208167 90.291,19.1345 C90.6983354,19.060833 91.0623317,18.9633339 91.383,18.842 L91.383,20.623 C90.9063309,20.8136676 90.4773352,20.945833 90.096,21.0195 C89.7146648,21.093167 89.3160021,21.13 88.9,21.13 C88.1459962,21.13 87.5436689,21.0433342 87.093,20.87 C86.6423311,20.6966658 86.282668,20.4193352 86.014,20.038 C85.7886655,19.708665 85.6218339,19.2883359 85.5135,18.777 C85.4051661,18.2656641 85.351,17.6460036 85.351,16.918 C85.351,15.4619927 85.6651635,14.39817 86.2935,13.7265 C86.9218365,13.05483 87.9206598,12.719 89.29,12.719 C89.6886687,12.719 90.0439984,12.7276666 90.356,12.745 C90.6680016,12.7623334 90.9496654,12.7926665 91.201,12.836 L91.201,14.591 C90.9149986,14.5736666 90.6181682,14.5606667 90.3105,14.552 C90.0028318,14.5433333 89.6626685,14.539 89.29,14.539 C88.8133309,14.539 88.4601678,14.5844995 88.2305,14.6755 C88.0008322,14.7665005 87.8296672,14.9246655 87.717,15.15 C87.6129995,15.3233342 87.5393335,15.5529986 87.496,15.839 C87.4526664,16.1250014 87.431,16.4846645 87.431,16.918 C87.431,17.3253354 87.4504998,17.6654986 87.4895,17.9385 C87.5285002,18.2115014 87.5913329,18.4389991 87.678,18.621 C87.7906672,18.8463345 87.9553322,19.0066662 88.172,19.102 C88.3886677,19.1973338 88.7179978,19.245 89.16,19.245 Z M98.7865804,17.789 C98.7865804,18.9936727 98.5439161,19.8516641 98.0585804,20.363 C97.5732446,20.8743359 96.7585861,21.13 95.6145804,21.13 C94.4705746,21.13 93.6559161,20.8743359 93.1705804,20.363 C92.6852446,19.8516641 92.4425804,18.9936727 92.4425804,17.789 C92.4425804,16.5843273 92.6852446,15.7263359 93.1705804,15.215 C93.6559161,14.7036641 94.4705746,14.448 95.6145804,14.448 C96.7585861,14.448 97.5732446,14.7036641 98.0585804,15.215 C98.5439161,15.7263359 98.7865804,16.5843273 98.7865804,17.789 Z M94.3925804,17.763 C94.3925804,18.42167 94.4640796,18.8463324 94.6070804,19.037 C94.7500811,19.2276676 95.0859111,19.323 95.6145804,19.323 C96.1432497,19.323 96.4790796,19.2276676 96.6220804,19.037 C96.7650811,18.8463324 96.8365804,18.42167 96.8365804,17.763 C96.8365804,17.10433 96.7650811,16.6796676 96.6220804,16.489 C96.4790796,16.2983324 96.1432497,16.203 95.6145804,16.203 C95.0859111,16.203 94.7500811,16.2983324 94.6070804,16.489 C94.4640796,16.6796676 94.3925804,17.10433 94.3925804,17.763 Z M102.134161,21 L100.184161,21 L100.184161,14.578 L101.874161,14.578 L101.952161,15.254 L101.991161,15.254 C102.268495,14.9679986 102.569659,14.7621673 102.894661,14.6365 C103.219662,14.5108327 103.611825,14.448 104.071161,14.448 C104.799164,14.448 105.349492,14.6256649 105.722161,14.981 C106.094829,15.3363351 106.281161,15.8606632 106.281161,16.554 L106.281161,21 L104.331161,21 L104.331161,16.814 C104.331161,16.6146657 104.250995,16.4630005 104.090661,16.359 C103.930327,16.2549995 103.694162,16.203 103.382161,16.203 C103.14816,16.203 102.922828,16.2289997 102.706161,16.281 C102.489493,16.3330003 102.298828,16.4066662 102.134161,16.502 L102.134161,21 Z M110.499741,16.099 C110.135739,16.099 109.890908,16.1271664 109.765241,16.1835 C109.639574,16.2398336 109.576741,16.3676657 109.576741,16.567 C109.576741,16.6450004 109.600574,16.7078331 109.648241,16.7555 C109.695908,16.8031669 109.763074,16.8313333 109.849741,16.84 L111.396741,17.048 C111.89941,17.1173337 112.252573,17.2798321 112.456241,17.5355 C112.659909,17.7911679 112.761741,18.1963306 112.761741,18.751 C112.761741,19.5830042 112.57541,20.1874981 112.202741,20.5645 C111.830073,20.9415019 111.180079,21.13 110.252741,21.13 C109.741405,21.13 109.27991,21.1105002 108.868241,21.0715 C108.456572,21.0324998 108.107743,20.9783337 107.821741,20.909 L107.821741,19.219 C108.038409,19.2710003 108.339572,19.3164998 108.725241,19.3555 C109.11091,19.3945002 109.503072,19.414 109.901741,19.414 C110.257076,19.414 110.497574,19.377167 110.623241,19.3035 C110.748908,19.229833 110.811741,19.089001 110.811741,18.881 C110.811741,18.8116663 110.790075,18.7531669 110.746741,18.7055 C110.703408,18.6578331 110.647075,18.6296667 110.577741,18.621 L108.978741,18.413 C108.510739,18.352333 108.170575,18.1811681 107.958241,17.8995 C107.745907,17.6178319 107.639741,17.1996694 107.639741,16.645 C107.639741,15.9169964 107.869405,15.3688352 108.328741,15.0005 C108.788077,14.6321648 109.468403,14.448 110.369741,14.448 C110.725076,14.448 111.054406,14.4566666 111.357741,14.474 C111.661076,14.4913334 111.981739,14.5259997 112.319741,14.578 L112.319741,16.203 C112.103073,16.1683332 111.834409,16.1423334 111.513741,16.125 C111.193073,16.1076666 110.855076,16.099 110.499741,16.099 Z M114.419321,16.203 L113.665321,16.203 L113.665321,14.578 L114.484321,14.578 L114.731321,13.083 L116.369321,13.083 L116.369321,14.578 L118.189321,14.578 L118.189321,16.203 L116.369321,16.203 L116.369321,18.699 C116.369321,18.9416679 116.432154,19.1041663 116.557821,19.1865 C116.683489,19.2688337 116.932653,19.31 117.305321,19.31 C117.435322,19.31 117.595654,19.2991668 117.786321,19.2775 C117.976989,19.2558332 118.137321,19.2320001 118.267321,19.206 L118.267321,20.87 C118.128654,20.930667 117.914156,20.9891664 117.623821,21.0455 C117.333487,21.1018336 117.075656,21.13 116.850321,21.13 C115.98365,21.13 115.361823,20.9458352 114.984821,20.5775 C114.60782,20.2091648 114.419321,19.6090042 114.419321,18.777 L114.419321,16.203 Z M121.419902,21 L119.469902,21 L119.469902,14.578 L121.289902,14.578 L121.354902,15.072 L121.380902,15.072 C121.692903,14.8813324 122.0114,14.7361672 122.336402,14.6365 C122.661403,14.5368328 122.9669,14.487 123.252902,14.487 L123.356902,14.487 L123.356902,16.372 C123.278901,16.3546666 123.194402,16.3438334 123.103402,16.3395 C123.012401,16.3351666 122.897569,16.333 122.758902,16.333 C122.507567,16.333 122.269236,16.3481665 122.043902,16.3785 C121.818567,16.4088335 121.610569,16.454333 121.419902,16.515 L121.419902,21 Z M126.743482,21.13 C126.015479,21.13 125.471651,20.9501685 125.111982,20.5905 C124.752314,20.2308315 124.572482,19.6870036 124.572482,18.959 L124.572482,14.578 L126.522482,14.578 L126.522482,18.699 C126.522482,18.9156678 126.587482,19.0716662 126.717482,19.167 C126.847483,19.2623338 127.055481,19.31 127.341482,19.31 C127.50615,19.31 127.681648,19.2970001 127.867982,19.271 C128.054316,19.2449999 128.242815,19.2060003 128.433482,19.154 L128.433482,14.578 L130.383482,14.578 L130.383482,21 L128.563482,21 L128.511482,20.649 L128.485482,20.649 C128.182147,20.7963341 127.87665,20.9133329 127.568982,21 C127.261314,21.0866671 126.98615,21.13 126.743482,21.13 Z M136.786063,19.037 L136.786063,20.649 C136.578062,20.7790007 136.240065,20.8916662 135.772063,20.987 C135.30406,21.0823338 134.823065,21.13 134.329063,21.13 C133.393058,21.13 132.736564,20.8808358 132.359563,20.3825 C131.982561,19.8841642 131.794063,19.0196728 131.794063,17.789 C131.794063,16.5583272 132.036727,15.6938358 132.522063,15.1955 C133.007398,14.6971642 133.856723,14.448 135.070063,14.448 C135.364731,14.448 135.629061,14.4544999 135.863063,14.4675 C136.097064,14.4805001 136.348395,14.5043332 136.617063,14.539 L136.617063,16.268 C136.192394,16.2333332 135.88473,16.2138334 135.694063,16.2095 C135.503395,16.2051666 135.295397,16.203 135.070063,16.203 C134.47206,16.203 134.101563,16.2874992 133.958563,16.4565 C133.815562,16.6255008 133.744063,17.0696631 133.744063,17.789 C133.744063,18.4390033 133.802562,18.8549991 133.919563,19.037 C134.036563,19.2190009 134.307394,19.31 134.732063,19.31 C135.078731,19.31 135.440561,19.2840003 135.817563,19.232 C136.194564,19.1799997 136.517395,19.1150004 136.786063,19.037 Z M138.521643,16.203 L137.767643,16.203 L137.767643,14.578 L138.586643,14.578 L138.833643,13.083 L140.471643,13.083 L140.471643,14.578 L142.291643,14.578 L142.291643,16.203 L140.471643,16.203 L140.471643,18.699 C140.471643,18.9416679 140.534476,19.1041663 140.660143,19.1865 C140.78581,19.2688337 141.034974,19.31 141.407643,19.31 C141.537644,19.31 141.697975,19.2991668 141.888643,19.2775 C142.079311,19.2558332 142.239642,19.2320001 142.369643,19.206 L142.369643,20.87 C142.230976,20.930667 142.016478,20.9891664 141.726143,21.0455 C141.435808,21.1018336 141.177977,21.13 140.952643,21.13 C140.085972,21.13 139.464145,20.9458352 139.087143,20.5775 C138.710141,20.2091648 138.521643,19.6090042 138.521643,18.777 L138.521643,16.203 Z M145.574223,13.876 L143.520223,13.876 L143.520223,12.355 L145.574223,12.355 L145.574223,13.876 Z M145.522223,21 L143.572223,21 L143.572223,14.578 L145.522223,14.578 L145.522223,21 Z M153.263804,17.789 C153.263804,18.9936727 153.021139,19.8516641 152.535804,20.363 C152.050468,20.8743359 151.235809,21.13 150.091804,21.13 C148.947798,21.13 148.133139,20.8743359 147.647804,20.363 C147.162468,19.8516641 146.919804,18.9936727 146.919804,17.789 C146.919804,16.5843273 147.162468,15.7263359 147.647804,15.215 C148.133139,14.7036641 148.947798,14.448 150.091804,14.448 C151.235809,14.448 152.050468,14.7036641 152.535804,15.215 C153.021139,15.7263359 153.263804,16.5843273 153.263804,17.789 Z M148.869804,17.763 C148.869804,18.42167 148.941303,18.8463324 149.084304,19.037 C149.227304,19.2276676 149.563134,19.323 150.091804,19.323 C150.620473,19.323 150.956303,19.2276676 151.099304,19.037 C151.242304,18.8463324 151.313804,18.42167 151.313804,17.763 C151.313804,17.10433 151.242304,16.6796676 151.099304,16.489 C150.956303,16.2983324 150.620473,16.203 150.091804,16.203 C149.563134,16.203 149.227304,16.2983324 149.084304,16.489 C148.941303,16.6796676 148.869804,17.10433 148.869804,17.763 Z M156.611384,21 L154.661384,21 L154.661384,14.578 L156.351384,14.578 L156.429384,15.254 L156.468384,15.254 C156.745719,14.9679986 157.046882,14.7621673 157.371884,14.6365 C157.696886,14.5108327 158.089048,14.448 158.548384,14.448 C159.276388,14.448 159.826715,14.6256649 160.199384,14.981 C160.572053,15.3363351 160.758384,15.8606632 160.758384,16.554 L160.758384,21 L158.808384,21 L158.808384,16.814 C158.808384,16.6146657 158.728218,16.4630005 158.567884,16.359 C158.40755,16.2549995 158.171386,16.203 157.859384,16.203 C157.625383,16.203 157.400052,16.2289997 157.183384,16.281 C156.966716,16.3330003 156.776051,16.4066662 156.611384,16.502 L156.611384,21 Z M171.457545,17.802 L171.457545,20.285 C171.20621,20.5276679 170.792381,20.7291659 170.216045,20.8895 C169.639709,21.0498341 169.030881,21.13 168.389545,21.13 C167.054871,21.13 166.086381,20.7833368 165.484045,20.09 C164.881708,19.3966632 164.580545,18.2916743 164.580545,16.775 C164.580545,15.4403267 164.883875,14.4306701 165.490545,13.746 C166.097214,13.0613299 166.994205,12.719 168.181545,12.719 C169.074216,12.719 169.761042,12.9291646 170.242045,13.3495 C170.723047,13.7698354 170.963545,14.3613295 170.963545,15.124 C170.963545,15.3233343 170.944045,15.5096658 170.905045,15.683 C170.866045,15.8563342 170.803212,16.0209992 170.716545,16.177 L172.900545,16.177 L172.900545,17.802 L171.457545,17.802 Z M169.065545,15.254 C169.065545,14.9939987 168.978879,14.7990007 168.805545,14.669 C168.632211,14.5389994 168.376546,14.474 168.038545,14.474 C167.544542,14.474 167.189212,14.6169986 166.972545,14.903 C166.755877,15.1890014 166.638878,15.6786632 166.621545,16.372 C167.488216,16.3459999 168.112209,16.2485008 168.493545,16.0795 C168.87488,15.9104992 169.065545,15.6353352 169.065545,15.254 Z M168.415545,19.323 C168.658213,19.323 168.896544,19.3056668 169.130545,19.271 C169.364546,19.2363332 169.511878,19.1973336 169.572545,19.154 L169.572545,17.243 C169.21721,17.4163342 168.79688,17.5506662 168.311545,17.646 C167.826209,17.7413338 167.288881,17.7976666 166.699545,17.815 C166.777545,18.3610027 166.946543,18.7488322 167.206545,18.9785 C167.466546,19.2081678 167.869542,19.323 168.415545,19.323 Z M93.788,25.849 L93.788,34 L91.903,34 L91.903,29.112 L90.512,32.44 L88.874,32.44 L87.509,29.112 L87.509,34 L85.624,34 L85.624,25.849 L88.081,25.849 L89.732,29.957 L91.422,25.849 L93.788,25.849 Z M97.0445804,34.13 C96.3859104,34.13 95.9027486,33.965335 95.5950804,33.636 C95.2874122,33.306665 95.1335804,32.7866702 95.1335804,32.076 C95.1335804,31.3479964 95.3177452,30.8366681 95.6860804,30.542 C96.0544155,30.2473319 96.6892425,30.1 97.5905804,30.1 C97.7985814,30.1 98.0130793,30.1108332 98.2340804,30.1325 C98.4550815,30.1541668 98.6479129,30.1823332 98.8125804,30.217 L98.8125804,29.749 C98.8125804,29.540999 98.7237479,29.3871672 98.5460804,29.2875 C98.3684128,29.1878328 98.0975822,29.138 97.7335804,29.138 C97.3175783,29.138 96.947082,29.1488332 96.6220804,29.1705 C96.2970787,29.1921668 96.0002484,29.2289997 95.7315804,29.281 L95.7315804,27.682 C96.0522486,27.6039996 96.4249116,27.5455002 96.8495804,27.5065 C97.2742492,27.4674998 97.7682442,27.448 98.3315804,27.448 C99.1289177,27.448 99.7334116,27.6256649 100.14508,27.981 C100.556749,28.3363351 100.76258,28.8606632 100.76258,29.554 L100.76258,34 L98.9425804,34 L98.8775804,33.454 L98.8385804,33.454 C98.5699124,33.662001 98.2752486,33.8266661 97.9545804,33.948 C97.6339121,34.0693339 97.3305818,34.13 97.0445804,34.13 Z M97.8505804,31.387 C97.503912,31.387 97.2699143,31.423833 97.1485804,31.4975 C97.0272464,31.571167 96.9665804,31.7249988 96.9665804,31.959 C96.9665804,32.1756678 97.0164132,32.3251663 97.1160804,32.4075 C97.2157475,32.4898337 97.3912458,32.531 97.6425804,32.531 C97.833248,32.531 98.0325793,32.5050003 98.2405804,32.453 C98.4485814,32.4009997 98.6392462,32.3360004 98.8125804,32.258 L98.8125804,31.465 C98.7085798,31.4389999 98.5785811,31.4195001 98.4225804,31.4065 C98.2665796,31.3934999 98.0759148,31.387 97.8505804,31.387 Z M104.370161,26.876 L102.316161,26.876 L102.316161,25.355 L104.370161,25.355 L104.370161,26.876 Z M104.318161,34 L102.368161,34 L102.368161,27.578 L104.318161,27.578 L104.318161,34 Z M107.899741,34 L105.949741,34 L105.949741,27.578 L107.639741,27.578 L107.717741,28.254 L107.756741,28.254 C108.034076,27.9679986 108.335239,27.7621673 108.660241,27.6365 C108.985243,27.5108327 109.377405,27.448 109.836741,27.448 C110.564745,27.448 111.115073,27.6256649 111.487741,27.981 C111.86041,28.3363351 112.046741,28.8606632 112.046741,29.554 L112.046741,34 L110.096741,34 L110.096741,29.814 C110.096741,29.6146657 110.016575,29.4630005 109.856241,29.359 C109.695907,29.2549995 109.459743,29.203 109.147741,29.203 C108.91374,29.203 108.688409,29.2289997 108.471741,29.281 C108.255073,29.3330003 108.064409,29.4066662 107.899741,29.502 L107.899741,34 Z M113.990321,29.203 L113.236321,29.203 L113.236321,27.578 L114.055321,27.578 L114.302321,26.083 L115.940321,26.083 L115.940321,27.578 L117.760321,27.578 L117.760321,29.203 L115.940321,29.203 L115.940321,31.699 C115.940321,31.9416679 116.003154,32.1041663 116.128821,32.1865 C116.254489,32.2688337 116.503653,32.31 116.876321,32.31 C117.006322,32.31 117.166654,32.2991668 117.357321,32.2775 C117.547989,32.2558332 117.708321,32.2320001 117.838321,32.206 L117.838321,33.87 C117.699654,33.930667 117.485156,33.9891664 117.194821,34.0455 C116.904487,34.1018336 116.646656,34.13 116.421321,34.13 C115.55465,34.13 114.932823,33.9458352 114.555821,33.5775 C114.17882,33.2091648 113.990321,32.6090042 113.990321,31.777 L113.990321,29.203 Z M124.292902,32.102 L124.292902,33.649 C124.084901,33.7790007 123.733904,33.8916662 123.239902,33.987 C122.745899,34.0823338 122.225905,34.13 121.679902,34.13 C120.639897,34.13 119.890237,33.867836 119.430902,33.3435 C118.971566,32.819164 118.741902,31.9676726 118.741902,30.789 C118.741902,29.6363276 118.984566,28.791336 119.469902,28.254 C119.955238,27.716664 120.72223,27.448 121.770902,27.448 C122.793574,27.448 123.515066,27.649498 123.935402,28.0525 C124.355737,28.455502 124.565902,29.1683282 124.565902,30.191 C124.565902,30.4683347 124.561569,30.6893325 124.552902,30.854 C124.544235,31.0186675 124.526902,31.2093323 124.500902,31.426 L120.704902,31.426 C120.713569,31.7813351 120.808901,32.0283326 120.990902,32.167 C121.172903,32.3056674 121.506566,32.375 121.991902,32.375 C122.407904,32.375 122.832566,32.3468336 123.265902,32.2905 C123.699237,32.2341664 124.041567,32.1713337 124.292902,32.102 Z M121.770902,29.112 C121.3549,29.112 121.073236,29.1834993 120.925902,29.3265 C120.778568,29.4695007 120.704902,29.7489979 120.704902,30.165 L122.797902,30.165 L122.797902,29.879 C122.789235,29.5756652 122.717736,29.3720005 122.583402,29.268 C122.449068,29.1639995 122.178237,29.112 121.770902,29.112 Z M127.926482,34 L125.976482,34 L125.976482,27.578 L127.666482,27.578 L127.744482,28.254 L127.783482,28.254 C128.060817,27.9679986 128.361981,27.7621673 128.686982,27.6365 C129.011984,27.5108327 129.404147,27.448 129.863482,27.448 C130.591486,27.448 131.141814,27.6256649 131.514482,27.981 C131.887151,28.3363351 132.073482,28.8606632 132.073482,29.554 L132.073482,34 L130.123482,34 L130.123482,29.814 C130.123482,29.6146657 130.043316,29.4630005 129.882982,29.359 C129.722648,29.2549995 129.486484,29.203 129.174482,29.203 C128.940481,29.203 128.71515,29.2289997 128.498482,29.281 C128.281814,29.3330003 128.09115,29.4066662 127.926482,29.502 L127.926482,34 Z M135.239063,34.13 C134.580393,34.13 134.097231,33.965335 133.789563,33.636 C133.481894,33.306665 133.328063,32.7866702 133.328063,32.076 C133.328063,31.3479964 133.512227,30.8366681 133.880563,30.542 C134.248898,30.2473319 134.883725,30.1 135.785063,30.1 C135.993064,30.1 136.207561,30.1108332 136.428563,30.1325 C136.649564,30.1541668 136.842395,30.1823332 137.007063,30.217 L137.007063,29.749 C137.007063,29.540999 136.91823,29.3871672 136.740563,29.2875 C136.562895,29.1878328 136.292064,29.138 135.928063,29.138 C135.51206,29.138 135.141564,29.1488332 134.816563,29.1705 C134.491561,29.1921668 134.194731,29.2289997 133.926063,29.281 L133.926063,27.682 C134.246731,27.6039996 134.619394,27.5455002 135.044063,27.5065 C135.468731,27.4674998 135.962726,27.448 136.526063,27.448 C137.3234,27.448 137.927894,27.6256649 138.339563,27.981 C138.751231,28.3363351 138.957063,28.8606632 138.957063,29.554 L138.957063,34 L137.137063,34 L137.072063,33.454 L137.033063,33.454 C136.764395,33.662001 136.469731,33.8266661 136.149063,33.948 C135.828394,34.0693339 135.525064,34.13 135.239063,34.13 Z M136.045063,31.387 C135.698394,31.387 135.464396,31.423833 135.343063,31.4975 C135.221729,31.571167 135.161063,31.7249988 135.161063,31.959 C135.161063,32.1756678 135.210895,32.3251663 135.310563,32.4075 C135.41023,32.4898337 135.585728,32.531 135.837063,32.531 C136.02773,32.531 136.227062,32.5050003 136.435063,32.453 C136.643064,32.4009997 136.833728,32.3360004 137.007063,32.258 L137.007063,31.465 C136.903062,31.4389999 136.773063,31.4195001 136.617063,31.4065 C136.461062,31.3934999 136.270397,31.387 136.045063,31.387 Z M142.512643,34 L140.562643,34 L140.562643,27.578 L142.252643,27.578 L142.330643,28.254 L142.369643,28.254 C142.646978,27.9679986 142.948141,27.7621673 143.273143,27.6365 C143.598145,27.5108327 143.990307,27.448 144.449643,27.448 C145.177647,27.448 145.727974,27.6256649 146.100643,27.981 C146.473311,28.3363351 146.659643,28.8606632 146.659643,29.554 L146.659643,34 L144.709643,34 L144.709643,29.814 C144.709643,29.6146657 144.629477,29.4630005 144.469143,29.359 C144.308809,29.2549995 144.072644,29.203 143.760643,29.203 C143.526642,29.203 143.301311,29.2289997 143.084643,29.281 C142.867975,29.3330003 142.67731,29.4066662 142.512643,29.502 L142.512643,34 Z M153.036223,32.037 L153.036223,33.649 C152.828222,33.7790007 152.490226,33.8916662 152.022223,33.987 C151.554221,34.0823338 151.073226,34.13 150.579223,34.13 C149.643219,34.13 148.986725,33.8808358 148.609723,33.3825 C148.232721,32.8841642 148.044223,32.0196728 148.044223,30.789 C148.044223,29.5583272 148.286888,28.6938358 148.772223,28.1955 C149.257559,27.6971642 150.106884,27.448 151.320223,27.448 C151.614891,27.448 151.879222,27.4544999 152.113223,27.4675 C152.347224,27.4805001 152.598555,27.5043332 152.867223,27.539 L152.867223,29.268 C152.442554,29.2333332 152.134891,29.2138334 151.944223,29.2095 C151.753556,29.2051666 151.545558,29.203 151.320223,29.203 C150.72222,29.203 150.351724,29.2874992 150.208723,29.4565 C150.065723,29.6255008 149.994223,30.0696631 149.994223,30.789 C149.994223,31.4390032 150.052723,31.8549991 150.169723,32.037 C150.286724,32.2190009 150.557554,32.31 150.982223,32.31 C151.328892,32.31 151.690721,32.2840003 152.067723,32.232 C152.444725,32.1799997 152.767555,32.1150004 153.036223,32.037 Z M159.672804,32.102 L159.672804,33.649 C159.464803,33.7790007 159.113806,33.8916662 158.619804,33.987 C158.125801,34.0823338 157.605806,34.13 157.059804,34.13 C156.019798,34.13 155.270139,33.867836 154.810804,33.3435 C154.351468,32.819164 154.121804,31.9676726 154.121804,30.789 C154.121804,29.6363276 154.364468,28.791336 154.849804,28.254 C155.335139,27.716664 156.102132,27.448 157.150804,27.448 C158.173475,27.448 158.894968,27.649498 159.315304,28.0525 C159.735639,28.455502 159.945804,29.1683282 159.945804,30.191 C159.945804,30.4683347 159.94147,30.6893325 159.932804,30.854 C159.924137,31.0186675 159.906804,31.2093323 159.880804,31.426 L156.084804,31.426 C156.09347,31.7813351 156.188803,32.0283326 156.370804,32.167 C156.552805,32.3056674 156.886468,32.375 157.371804,32.375 C157.787806,32.375 158.212468,32.3468336 158.645804,32.2905 C159.079139,32.2341664 159.421469,32.1713337 159.672804,32.102 Z M157.150804,29.112 C156.734802,29.112 156.453138,29.1834993 156.305804,29.3265 C156.15847,29.4695007 156.084804,29.7489979 156.084804,30.165 L158.177804,30.165 L158.177804,29.879 C158.169137,29.5756652 158.097638,29.3720005 157.963304,29.268 C157.82897,29.1639995 157.558139,29.112 157.150804,29.112 Z" id="Construction&amp;Maintenance" fill="#303030" fill-rule="nonzero"></path>
                    <g id="Buildings" transform="translate(0.750000, 11.000000)" stroke="#0DC8B0">
                        <path d="M2.11523438,24.5 L5.37890625,24.5" id="Path-7" stroke-linecap="round" stroke-linejoin="bevel"></path>
                        <path d="M2.11523438,19.5 L5.37890625,19.5" id="Path-7" stroke-linecap="round" stroke-linejoin="bevel"></path>
                        <polygon id="Path-4" stroke-linejoin="round" points="7.25 0 7.25 29 13.6495092 29 13.6495092 13.1530442 17.8588173 13.1530442 17.8588173 3"></polygon>
                        <polygon id="Path-6" stroke-linejoin="round" points="7.25 9.62353516 0.25 9.62353516 0.25 29 7.25 29"></polygon>
                        <path d="M2.11523438,14.5 L5.37890625,14.5" id="Path-7" stroke-linecap="round" stroke-linejoin="bevel"></path>
                        <path d="M23.4555664,13.0932617 L23.4555664,29 L13.75,29 L13.75,13.0932617 L23.4555664,13.0932617 Z" id="Path-8" stroke-linecap="round" stroke-linejoin="bevel"></path>
                        <path d="M9.11523437,19.5 L11.6118164,19.5" id="Path-7" stroke-linecap="round" stroke-linejoin="bevel"></path>
                        <path d="M9.11523437,14.5 L11.6118164,14.5" id="Path-7" stroke-linecap="round" stroke-linejoin="bevel"></path>
                        <path d="M9.11523437,24.5 L11.6118164,24.5" id="Path-7" stroke-linecap="round" stroke-linejoin="bevel"></path>
                        <path d="M9.11523437,9.5 L11.6118164,9.5" id="Path-7" stroke-linecap="round" stroke-linejoin="bevel"></path>
                        <path d="M9.11523437,4.5 L11.6118164,4.5" id="Path-7" stroke-linecap="round" stroke-linejoin="bevel"></path>
                        <path d="M16.1152344,17.5 L20.8178711,17.5" id="Path-7" stroke-linecap="round" stroke-linejoin="bevel"></path>
                        <path d="M16.1152344,21.5 L20.8178711,21.5" id="Path-7" stroke-linecap="round" stroke-linejoin="bevel"></path>
                        <path d="M16.1152344,25.5 L20.8178711,25.5" id="Path-7" stroke-linecap="round" stroke-linejoin="bevel"></path>
                        <path d="M22.25,29 L172.75,28.5" id="Path-7" stroke-linecap="round" stroke-linejoin="bevel"></path>
                    </g>
                </g>
            </g>
        </g>
    </g>
</svg>