<?xml version="1.0" encoding="UTF-8"?><svg viewBox="0 0 174 33" xmlns="http://www.w3.org/2000/svg"><g fill="none" fill-rule="evenodd"><path d="M42.72 16.544h-3.456v-4h8.096v10.56c-.598.277-1.664.55-3.2.816-1.536.267-2.934.4-4.192.4-3.478 0-5.894-.8-7.248-2.4-1.355-1.6-2.032-4.256-2.032-7.968 0-3.584.789-6.203 2.368-7.856 1.578-1.653 4.096-2.48 7.552-2.48 1.258 0 2.384.027 3.376.08.992.053 1.754.133 2.288.24v4.352a44.432 44.432 0 0 0-2.512-.144 96.07 96.07 0 0 0-3.152-.048c-1.216 0-2.118.107-2.704.32a2.419 2.419 0 0 0-1.328 1.12c-.278.427-.475.997-.592 1.712-.118.715-.176 1.616-.176 2.704 0 1.045.053 1.92.16 2.624.106.704.277 1.27.512 1.696.298.576.72.981 1.264 1.216s1.392.352 2.544.352a15.661 15.661 0 0 0 2.432-.192v-3.104zm13.808-.352V3.936h4.96v12.576c0 2.795-.608 4.795-1.824 6-1.216 1.205-3.243 1.808-6.08 1.808-.725 0-1.381-.027-1.968-.08a10.843 10.843 0 0 1-1.648-.272v-4.512c.427.085.885.144 1.376.176.49.032 1.045.048 1.664.048 1.472 0 2.427-.224 2.864-.672.437-.448.656-1.387.656-2.816zm21.968 3.168V24h-12.8V3.936h4.96V19.36h7.84zM89.16 9.245c.347 0 .724-.037 1.131-.11a6.221 6.221 0 0 0 1.092-.293v1.781a7.2 7.2 0 0 1-1.287.397c-.381.073-.78.11-1.196.11-.754 0-1.356-.087-1.807-.26-.45-.173-.81-.45-1.079-.832-.225-.33-.392-.75-.5-1.261-.109-.511-.163-1.131-.163-1.859 0-1.456.314-2.52.942-3.192.629-.671 1.628-1.007 2.997-1.007.399 0 .754.009 1.066.026.312.017.594.048.845.091v1.755c-.286-.017-.583-.03-.89-.039a36.489 36.489 0 0 0-1.021-.013c-.477 0-.83.045-1.06.137-.23.09-.4.249-.513.474a1.895 1.895 0 0 0-.221.689 7.409 7.409 0 0 0-.065 1.079c0 .407.02.747.059 1.02.039.274.101.501.188.683a.987.987 0 0 0 .494.481c.217.095.546.143.988.143zm9.627-1.456c0 1.205-.243 2.063-.728 2.574-.486.511-1.3.767-2.444.767s-1.96-.256-2.444-.767c-.486-.511-.728-1.37-.728-2.574 0-1.205.242-2.063.728-2.574.485-.511 1.3-.767 2.444-.767s1.958.256 2.444.767c.485.511.728 1.37.728 2.574zm-4.394-.026c0 .659.071 1.083.214 1.274.143.19.479.286 1.008.286.528 0 .864-.095 1.007-.286.143-.19.215-.615.215-1.274s-.072-1.083-.215-1.274c-.143-.19-.479-.286-1.007-.286-.53 0-.865.095-1.008.286-.143.19-.214.615-.214 1.274zM102.134 11h-1.95V4.578h1.69l.078.676h.04c.276-.286.578-.492.903-.617.325-.126.717-.189 1.176-.189.728 0 1.278.178 1.651.533.373.355.56.88.56 1.573V11h-1.95V6.814c0-.2-.081-.351-.241-.455-.16-.104-.397-.156-.709-.156-.234 0-.46.026-.676.078a2.126 2.126 0 0 0-.572.221V11zm8.366-4.901c-.364 0-.61.028-.735.085-.125.056-.188.184-.188.383 0 .078.024.14.071.188a.32.32 0 0 0 .202.085l1.547.208c.502.07.856.232 1.06.487.203.256.305.661.305 1.216 0 .832-.187 1.436-.56 1.814-.372.377-1.022.565-1.95.565-.51 0-.972-.02-1.384-.059a7.545 7.545 0 0 1-1.046-.162v-1.69c.216.052.518.097.903.136.386.04.778.059 1.177.059.355 0 .596-.037.721-.11.126-.074.189-.215.189-.423a.251.251 0 0 0-.065-.175.264.264 0 0 0-.17-.085l-1.598-.208c-.468-.06-.808-.232-1.02-.514-.213-.281-.32-.7-.32-1.254 0-.728.23-1.276.69-1.644.46-.369 1.14-.553 2.04-.553.356 0 .685.009.989.026.303.017.624.052.962.104v1.625a7.949 7.949 0 0 0-.806-.078c-.32-.017-.659-.026-1.014-.026zm3.92.104h-.755V4.578h.82l.246-1.495h1.638v1.495h1.82v1.625h-1.82v2.496c0 .243.063.405.189.488.125.082.375.123.747.123.13 0 .29-.01.481-.033.191-.021.351-.045.481-.071v1.664c-.138.06-.353.12-.643.176-.29.056-.548.084-.774.084-.866 0-1.488-.184-1.865-.553-.377-.368-.566-.968-.566-1.8V6.203zm7 4.797h-1.95V4.578h1.82l.065.494h.026c.312-.19.63-.336.955-.436.325-.1.63-.149.917-.149h.104v1.885a1.498 1.498 0 0 0-.254-.032 7.484 7.484 0 0 0-.344-.007c-.251 0-.49.015-.715.045-.225.03-.433.076-.624.137V11zm5.323.13c-.728 0-1.271-.18-1.631-.54-.36-.36-.54-.903-.54-1.631V4.578h1.95v4.121c0 .217.065.373.195.468.13.095.338.143.624.143.165 0 .34-.013.527-.039.186-.026.375-.065.565-.117V4.578h1.95V11h-1.82l-.052-.351h-.026a5.526 5.526 0 0 1-.916.351c-.308.087-.583.13-.826.13zm10.043-2.093v1.612c-.208.13-.546.243-1.014.338a7.211 7.211 0 0 1-1.443.143c-.936 0-1.592-.25-1.97-.748-.376-.498-.565-1.362-.565-2.593 0-1.23.243-2.095.728-2.593.485-.499 1.335-.748 2.548-.748.295 0 .56.006.793.02.234.013.485.036.754.071v1.729a17.76 17.76 0 0 0-.923-.058c-.19-.005-.399-.007-.624-.007-.598 0-.968.084-1.111.253-.143.17-.215.614-.215 1.333 0 .65.059 1.066.176 1.248.117.182.387.273.812.273a7.95 7.95 0 0 0 1.086-.078c.377-.052.7-.117.968-.195zm1.736-2.834h-.754V4.578h.819l.247-1.495h1.638v1.495h1.82v1.625h-1.82v2.496c0 .243.062.405.188.488.126.082.375.123.748.123.13 0 .29-.01.48-.033.191-.021.352-.045.482-.071v1.664c-.139.06-.354.12-.644.176-.29.056-.548.084-.773.084-.867 0-1.489-.184-1.866-.553-.377-.368-.565-.968-.565-1.8V6.203zm7.052-2.327h-2.054V2.355h2.054v1.521zM145.522 11h-1.95V4.578h1.95V11zm7.742-3.211c0 1.205-.243 2.063-.728 2.574-.486.511-1.3.767-2.444.767s-1.959-.256-2.444-.767c-.486-.511-.728-1.37-.728-2.574 0-1.205.242-2.063.728-2.574.485-.511 1.3-.767 2.444-.767s1.958.256 2.444.767c.485.511.728 1.37.728 2.574zm-4.394-.026c0 .659.071 1.083.214 1.274.143.19.48.286 1.008.286s.864-.095 1.007-.286c.143-.19.215-.615.215-1.274s-.072-1.083-.215-1.274c-.143-.19-.479-.286-1.007-.286-.529 0-.865.095-1.008.286-.143.19-.214.615-.214 1.274zM156.61 11h-1.95V4.578h1.69l.078.676h.04c.277-.286.578-.492.903-.617.325-.126.717-.189 1.176-.189.728 0 1.279.178 1.651.533.373.355.56.88.56 1.573V11h-1.95V6.814c0-.2-.08-.351-.241-.455-.16-.104-.397-.156-.709-.156-.234 0-.459.026-.676.078a2.126 2.126 0 0 0-.572.221V11zm14.847-3.198v2.483c-.252.243-.666.444-1.242.604-.576.16-1.185.241-1.826.241-1.335 0-2.304-.347-2.906-1.04-.602-.693-.903-1.798-.903-3.315 0-1.335.303-2.344.91-3.029.606-.685 1.503-1.027 2.69-1.027.893 0 1.58.21 2.061.63.481.42.722 1.012.722 1.775 0 .2-.02.386-.059.559a1.847 1.847 0 0 1-.188.494h2.184v1.625h-1.443zm-2.392-2.548c0-.26-.087-.455-.26-.585-.174-.13-.43-.195-.767-.195-.494 0-.85.143-1.066.429-.217.286-.334.776-.351 1.469.866-.026 1.49-.123 1.872-.292.38-.17.572-.445.572-.826zm-.65 4.069c.242 0 .48-.017.715-.052.234-.035.38-.074.442-.117V7.243a5.135 5.135 0 0 1-1.261.403 9.901 9.901 0 0 1-1.612.169c.078.546.247.934.507 1.163.26.23.663.345 1.209.345zm-74.628 6.526V24h-1.885v-4.888l-1.391 3.328h-1.638l-1.365-3.328V24h-1.885v-8.151h2.457l1.651 4.108 1.69-4.108h2.366zm3.257 8.281c-.66 0-1.142-.165-1.45-.494-.308-.33-.461-.85-.461-1.56 0-.728.184-1.24.552-1.534.368-.295 1.003-.442 1.905-.442a6.597 6.597 0 0 1 1.222.117v-.468a.494.494 0 0 0-.267-.461c-.178-.1-.448-.15-.812-.15-.416 0-.787.01-1.112.032a7.24 7.24 0 0 0-.89.111v-1.599c.32-.078.693-.136 1.118-.175a16.43 16.43 0 0 1 1.482-.059c.797 0 1.401.178 1.813.533.412.355.618.88.618 1.573V24h-1.82l-.065-.546h-.04a3.403 3.403 0 0 1-.883.494c-.321.121-.624.182-.91.182zm.806-2.743c-.347 0-.581.037-.702.11-.122.074-.182.228-.182.462 0 .217.05.366.15.448.099.083.274.124.526.124.19 0 .39-.026.598-.078.208-.052.398-.117.572-.195v-.793a2.502 2.502 0 0 0-.39-.058 7.056 7.056 0 0 0-.572-.02zm6.52-4.511h-2.055v-1.521h2.054v1.521zM104.317 24h-1.95v-6.422h1.95V24zm3.582 0h-1.95v-6.422h1.69l.078.676h.039c.277-.286.578-.492.903-.617.325-.126.717-.189 1.177-.189.728 0 1.278.178 1.65.533.373.355.56.88.56 1.573V24h-1.95v-4.186c0-.2-.08-.351-.24-.455-.161-.104-.397-.156-.71-.156-.233 0-.459.026-.675.078a2.126 2.126 0 0 0-.572.221V24zm6.09-4.797h-.754v-1.625h.82l.246-1.495h1.638v1.495h1.82v1.625h-1.82v2.496c0 .243.063.405.189.487.125.083.375.124.747.124a5.921 5.921 0 0 0 .962-.104v1.664c-.138.06-.353.12-.643.175-.29.057-.548.085-.774.085-.866 0-1.488-.184-1.865-.552-.377-.369-.566-.969-.566-1.801v-2.574zm10.303 2.899v1.547c-.208.13-.56.243-1.053.338a8.221 8.221 0 0 1-1.56.143c-1.04 0-1.79-.262-2.25-.787-.458-.524-.688-1.375-.688-2.554 0-1.153.243-1.998.728-2.535.485-.537 1.252-.806 2.3-.806 1.024 0 1.745.201 2.165.604.42.404.63 1.116.63 2.139 0 .277-.003.498-.012.663a8.72 8.72 0 0 1-.052.572h-3.796c.009.355.104.602.286.741s.516.208 1 .208c.417 0 .842-.028 1.275-.084.433-.057.776-.12 1.027-.189zm-2.522-2.99c-.416 0-.698.071-.845.215-.147.143-.221.422-.221.838h2.093v-.286c-.009-.303-.08-.507-.215-.611-.134-.104-.405-.156-.812-.156zM127.926 24h-1.95v-6.422h1.69l.078.676h.04c.277-.286.578-.492.903-.617.325-.126.717-.189 1.176-.189.728 0 1.279.178 1.651.533.373.355.56.88.56 1.573V24h-1.95v-4.186c0-.2-.08-.351-.241-.455-.16-.104-.397-.156-.709-.156-.234 0-.459.026-.676.078a2.126 2.126 0 0 0-.572.221V24zm7.313.13c-.659 0-1.142-.165-1.45-.494-.307-.33-.46-.85-.46-1.56 0-.728.183-1.24.552-1.534.368-.295 1.003-.442 1.904-.442a6.597 6.597 0 0 1 1.222.117v-.468a.494.494 0 0 0-.266-.461c-.178-.1-.449-.15-.813-.15-.416 0-.786.01-1.111.032a7.24 7.24 0 0 0-.89.111v-1.599c.32-.078.692-.136 1.117-.175a16.43 16.43 0 0 1 1.482-.059c.797 0 1.402.178 1.814.533.411.355.617.88.617 1.573V24h-1.82l-.065-.546h-.039a3.403 3.403 0 0 1-.884.494c-.32.121-.624.182-.91.182zm.806-2.743c-.347 0-.58.037-.702.11-.121.074-.182.228-.182.462 0 .217.05.366.15.448.1.083.275.124.526.124.19 0 .39-.026.598-.078.208-.052.399-.117.572-.195v-.793a2.502 2.502 0 0 0-.39-.058 7.056 7.056 0 0 0-.572-.02zM142.513 24h-1.95v-6.422h1.69l.078.676h.039c.277-.286.578-.492.903-.617.325-.126.717-.189 1.177-.189.728 0 1.278.178 1.65.533.373.355.56.88.56 1.573V24h-1.95v-4.186c0-.2-.08-.351-.24-.455-.161-.104-.397-.156-.71-.156-.233 0-.459.026-.675.078a2.126 2.126 0 0 0-.572.221V24zm10.523-1.963v1.612c-.208.13-.546.243-1.014.338a7.211 7.211 0 0 1-1.443.143c-.936 0-1.592-.25-1.97-.747-.376-.499-.565-1.363-.565-2.594 0-1.23.243-2.095.728-2.594.486-.498 1.335-.747 2.548-.747.295 0 .56.006.793.02.234.013.486.036.754.071v1.729a17.76 17.76 0 0 0-.923-.059c-.19-.004-.398-.006-.624-.006-.598 0-.968.084-1.111.253-.143.17-.215.614-.215 1.333 0 .65.059 1.066.176 1.248.117.182.388.273.812.273a7.95 7.95 0 0 0 1.086-.078c.377-.052.7-.117.968-.195zm6.637.065v1.547c-.208.13-.56.243-1.053.338a8.221 8.221 0 0 1-1.56.143c-1.04 0-1.79-.262-2.25-.787-.459-.524-.688-1.375-.688-2.554 0-1.153.242-1.998.728-2.535.485-.537 1.252-.806 2.3-.806 1.023 0 1.745.201 2.165.604.42.404.63 1.116.63 2.139 0 .277-.004.498-.012.663a8.72 8.72 0 0 1-.052.572h-3.796c.008.355.104.602.286.741s.515.208 1 .208c.417 0 .841-.028 1.275-.084.433-.057.775-.12 1.027-.189zm-2.522-2.99c-.416 0-.698.071-.845.215-.148.143-.221.422-.221.838h2.093v-.286c-.009-.303-.08-.507-.215-.611-.134-.104-.405-.156-.812-.156z" fill="#303030" fill-rule="nonzero"/><g stroke="#0DC8B0"><path d="M1.25 30.25l172.5 1.5" stroke-linecap="round" stroke-linejoin="round"/><path d="M2.865 25.5H6.13M2.865 20.5H6.13" stroke-linecap="round" stroke-linejoin="bevel"/><path stroke-linejoin="round" d="M8 1v29h6.4V14.153h4.209V4zM8 10.624H1V30h7z"/><path d="M2.865 15.5H6.13M9.865 15.5h2.497-2.497zm4.635-1.407h9.706V30H14.5V14.093zM9.865 20.5h2.497M9.865 25.5h2.497M9.865 10.5h2.497M9.865 5.5h2.497M16.865 18.5h4.703M16.865 22.5h4.703M16.865 26.5h4.703" stroke-linecap="round" stroke-linejoin="bevel"/></g></g></svg>